# Blender v2.79 (sub 0) OBJ File: ''
# www.blender.org
mtllib anvil.mtl
o LO_Anvil_Untitled
v -0.511334 2.274038 2.443754
v 0.310566 2.274038 3.491028
v 0.310566 2.274038 2.443754
v 1.865287 2.274038 3.368432
v 0.310566 2.274038 3.713600
v 1.058892 0.488932 2.439898
v 0.768786 0.488932 3.441996
v 1.058874 0.488932 3.495176
v -0.768786 0.488932 3.441996
v -1.058892 0.488932 2.439898
v -1.058874 0.488932 3.495176
v -0.336346 0.488932 2.319293
v 0.336346 0.488932 2.409865
v 0.336346 0.488932 2.319293
v 0.336346 0.488932 3.615807
v -0.336346 0.488932 3.525508
v -0.336346 0.488932 3.615807
v 0.515920 0.488932 2.049954
v 0.768786 0.488932 2.492867
v 0.978770 0.488932 2.043315
v 0.515920 0.488932 3.885147
v 0.515920 0.488932 3.527578
v -0.515920 0.488932 3.885147
v -0.978787 0.488932 3.891779
v -0.515920 0.488932 2.049954
v -0.768786 0.488932 2.492867
v -0.515920 0.488932 2.407285
v 0.515920 0.488932 2.407285
v 0.336346 0.488932 3.525508
v -0.515920 0.488932 3.527578
v -0.336346 0.488932 2.409865
v 1.057522 0.488932 2.154286
v 1.057522 0.488932 3.780815
v -1.057522 0.488932 3.780815
v -1.057522 0.488932 2.154286
v -0.511334 2.113099 2.511745
v -0.511334 1.952076 2.129572
v -0.511334 2.204709 3.331269
v -0.511334 2.204709 2.603513
v -0.511334 2.274038 2.221182
v 0.310566 2.274038 2.221182
v -0.511334 2.274038 3.491028
v -0.511334 2.274038 3.713600
v -0.511334 2.182428 3.805210
v -0.511334 2.182428 2.129572
v -0.936298 1.258703 2.601882
v -0.936298 2.113099 2.511745
v -0.936298 1.350312 2.510430
v -0.511334 1.350312 3.424456
v -0.514906 1.258703 3.424625
v -0.511334 1.952076 3.805210
v 1.865287 2.274038 2.566350
v -0.511334 1.258703 2.601882
v -0.511334 1.350312 2.510430
v -0.514644 1.258703 2.510272
v -0.511334 1.258703 3.333015
v -0.511334 2.113099 3.423048
v -0.936298 2.204709 3.331269
v -0.936298 1.258703 3.333015
v -0.936298 2.113099 3.423048
v -0.936298 1.350312 3.424456
v 0.978787 0.488932 3.891779
v -0.978770 0.488932 2.043315
v -0.936298 2.204709 2.603513
v 0.336346 0.373908 3.730831
v -0.336346 -0.000000 3.730831
v 0.336346 -0.000000 3.730831
v 1.172546 0.373908 2.457595
v 1.172546 -0.000000 3.477590
v 1.172546 -0.000000 2.457595
v -0.336346 0.373908 2.204269
v 0.336346 -0.000000 2.204269
v -0.336346 -0.000000 2.204269
v -1.172546 0.373908 3.477590
v -1.172546 -0.000000 2.457595
v -1.172546 -0.000000 3.477590
v 1.017282 0.373909 4.000171
v 0.515920 -0.000000 4.000171
v 1.017282 -0.000000 4.000171
v -1.017282 -0.000000 4.000171
v -0.515920 0.373909 4.000171
v -1.017282 0.373909 4.000171
v -1.017282 0.373908 1.934930
v -0.515920 -0.000000 1.934930
v -1.017282 -0.000000 1.934930
v 1.017282 -0.000000 1.934930
v 0.515920 0.373908 1.934930
v 1.017282 0.373908 1.934930
v 0.515920 0.373909 4.000171
v -0.515920 -0.000000 4.000171
v -0.336346 0.373908 3.730831
v -0.515920 0.373908 1.934930
v 0.515920 -0.000000 1.934930
v 0.336346 0.373908 2.204269
v 1.172546 -0.000000 3.824329
v -1.172546 0.373908 3.824329
v 1.172546 0.373908 2.110772
v 1.172546 -0.000000 2.110772
v -1.172546 -0.000000 2.110772
v 1.172546 0.373908 3.477590
v 1.172546 0.373908 3.824329
v -1.172546 -0.000000 3.824329
v -1.172546 0.373908 2.457595
v -1.172546 0.373908 2.110772
v 0.849440 0.488932 3.435969
v 0.511334 1.258703 2.601882
v 0.511334 1.258703 3.333015
v 0.515920 0.488932 2.407285
v 0.419724 1.258703 2.510272
v 0.757831 0.488932 2.407285
v 0.310566 1.258703 2.510272
v -0.849440 0.488932 3.435969
v -0.849440 0.488932 2.498894
v 0.515920 0.488932 3.527578
v -0.757831 0.488932 3.527578
v 0.419724 1.258703 3.424625
v 0.310566 1.258703 3.424625
v 1.956613 1.952076 3.361230
v 0.310566 1.952076 2.129572
v 1.956613 1.952076 2.573551
v 0.310566 1.952076 3.805210
v 1.956613 2.182428 3.361230
v 1.956613 2.182428 2.573551
v 0.310566 2.182428 2.129572
v 0.310566 2.182428 3.805210
v 0.757831 0.488932 3.527578
v 0.849440 0.488932 2.498894
v -0.757831 0.488932 2.407285
v -0.936297 2.149296 2.968032
v -1.408419 2.053829 2.733678
v -1.408419 2.150901 2.968032
v -0.936297 2.025887 2.670098
v -1.408418 1.819475 2.636606
v -0.936297 1.727953 2.546689
v -1.408418 1.585121 2.733678
v -0.936297 1.430018 2.670098
v -1.408418 1.488049 2.968032
v -0.936297 1.430018 3.265967
v -0.936297 1.306610 2.968032
v -0.936297 1.727953 3.389375
v -1.408418 1.585121 3.202386
v -0.936297 2.025887 3.265967
v -1.408418 1.819475 3.299459
v -1.408419 2.053829 3.202386
v -2.232032 2.111631 2.968032
v -2.176563 2.132747 3.016239
v -2.176563 2.152715 2.968032
v -1.836909 2.098089 2.825613
v -1.836909 2.157081 2.968032
v -1.836909 1.955670 2.766621
v -1.836909 1.813251 2.825613
v -1.836909 1.754259 2.968032
v -1.836909 1.813251 3.110451
v -1.836909 1.955670 3.169443
v -1.836909 2.098089 3.110451
v -2.176563 2.132747 2.919826
v -2.176563 2.084541 2.899858
v -2.176563 2.036334 2.919826
v -2.176563 2.016366 2.968032
v -2.176563 2.036334 3.016239
v -2.176563 2.084541 3.036206
vt 0.725901 0.314876
vt 0.609104 0.463701
vt 0.609104 0.314876
vt 0.388167 0.446279
vt 0.609104 0.495330
vt 0.405649 0.852543
vt 0.364423 0.710137
vt 0.406011 0.702579
vt 0.145924 0.710137
vt 0.104336 0.852547
vt 0.104700 0.702579
vt 0.207376 0.869681
vt 0.302970 0.856810
vt 0.302971 0.869681
vt 0.302971 0.685437
vt 0.207376 0.698270
vt 0.206841 0.684634
vt 0.328490 0.907956
vt 0.364423 0.845015
vt 0.394264 0.908897
vt 0.328493 0.647163
vt 0.328489 0.697975
vt 0.182324 0.647964
vt 0.116146 0.646228
vt 0.181857 0.907956
vt 0.145924 0.845015
vt 0.181858 0.857177
vt 0.328489 0.857177
vt 0.302970 0.698270
vt 0.181858 0.697975
vt 0.207376 0.856810
vt 0.405453 0.893132
vt 0.405987 0.661952
vt 0.104897 0.661984
vt 0.104361 0.893170
vt 0.748772 0.324538
vt 0.771654 0.270229
vt 0.735753 0.440998
vt 0.735753 0.337579
vt 0.725901 0.283247
vt 0.609104 0.283247
vt 0.725901 0.463701
vt 0.725901 0.495330
vt 0.738920 0.508348
vt 0.738920 0.270229
vt 0.095458 0.468467
vt 0.223383 0.481276
vt 0.101967 0.484162
vt 0.857169 0.454241
vt 0.870188 0.454265
vt 0.771654 0.508348
vt 0.388167 0.332298
vt 0.870188 0.337347
vt 0.857169 0.324351
vt 0.870188 0.324329
vt 0.870188 0.441246
vt 0.748772 0.454040
vt 0.229892 0.364816
vt 0.095458 0.364567
vt 0.223383 0.352383
vt 0.101967 0.349483
vt 0.394288 0.646255
vt 0.116059 0.908865
vt 0.229892 0.468235
vt 0.299944 0.667073
vt 0.210943 0.613614
vt 0.294795 0.616385
vt 0.422008 0.850107
vt 0.475845 0.705412
vt 0.475144 0.850364
vt 0.210404 0.888046
vt 0.296432 0.940175
vt 0.209753 0.940174
vt 0.088341 0.704999
vt 0.034501 0.849700
vt 0.035203 0.704741
vt 0.412834 0.629387
vt 0.319841 0.578105
vt 0.398796 0.576689
vt 0.112566 0.576327
vt 0.185303 0.627684
vt 0.098257 0.629348
vt 0.097522 0.925745
vt 0.184731 0.978447
vt 0.111609 0.978455
vt 0.398738 0.978455
vt 0.325345 0.926320
vt 0.412196 0.925725
vt 0.325355 0.628797
vt 0.187612 0.577211
vt 0.209336 0.663983
vt 0.185002 0.926320
vt 0.321453 0.978448
vt 0.299943 0.888046
vt 0.476083 0.656138
vt 0.476204 0.631149
vt 0.085867 0.653834
vt 0.035562 0.630474
vt 0.474785 0.924640
vt 0.424488 0.901243
vt 0.474905 0.899651
vt 0.034262 0.898989
vt 0.034141 0.923979
vt 0.422709 0.705155
vt 0.425304 0.653626
vt 0.035441 0.655464
vt 0.087639 0.849957
vt 0.085045 0.901500
vt 0.081298 0.202215
vt 0.193167 0.083686
vt 0.193167 0.187253
vt 0.579921 0.029571
vt 0.593591 0.138961
vt 0.545544 0.029571
vt 0.726372 0.138961
vt 0.609104 0.138961
vt 0.979577 0.455877
vt 0.979577 0.322712
vt 0.579921 0.749006
vt 0.726409 0.639616
vt 0.760930 0.749006
vt 0.593591 0.639616
vt 0.609104 0.639616
vt 0.397311 0.191429
vt 0.609104 0.237494
vt 0.375189 0.237494
vt 0.725901 0.237494
vt 0.725901 0.541083
vt 0.609104 0.541083
vt 0.342414 0.333321
vt 0.375149 0.445256
vt 0.342414 0.445256
vt 0.375189 0.270229
vt 0.609104 0.270229
vt 0.725901 0.508348
vt 0.375189 0.541083
vt 0.609104 0.508348
vt 0.035068 0.364567
vt 0.035068 0.468467
vt 0.216986 0.292603
vt 0.108589 0.292402
vt 0.290283 0.468235
vt 0.290283 0.364816
vt 0.108581 0.541853
vt 0.216978 0.541666
vt 0.388167 0.283247
vt 0.388167 0.495330
vt 0.189521 0.202108
vt 0.189521 0.068832
vt 0.397311 0.079494
vt 0.085785 0.219072
vt 0.085786 0.051863
vt 0.081298 0.068719
vt 0.979577 0.309693
vt 0.979577 0.468895
vt 0.035068 0.486861
vt 0.035068 0.346174
vt 0.290283 0.351773
vt 0.290283 0.481276
vt 0.706226 0.778348
vt 0.746420 0.844339
vt 0.709652 0.846310
vt 0.756187 0.776810
vt 0.784348 0.847451
vt 0.809035 0.782632
vt 0.819559 0.860778
vt 0.859438 0.801798
vt 0.847632 0.884191
vt 0.570390 0.805060
vt 0.579453 0.884854
vt 0.531624 0.830762
vt 0.613567 0.790090
vt 0.608717 0.864541
vt 0.658945 0.782485
vt 0.641209 0.854138
vt 0.675164 0.849118
vt 0.713123 0.967872
vt 0.708962 0.958240
vt 0.718334 0.957121
vt 0.733073 0.905545
vt 0.711430 0.908452
vt 0.755766 0.906569
vt 0.775853 0.914464
vt 0.791545 0.929245
vt 0.631537 0.933342
vt 0.649308 0.920443
vt 0.670212 0.914002
vt 0.692484 0.910113
vt 0.725239 0.954435
vt 0.729952 0.953785
vt 0.734565 0.956222
vt 0.740070 0.963064
vt 0.679081 0.972217
vt 0.687223 0.966181
vt 0.699306 0.960844
vt 0.699977 0.976662
vt 0.682626 0.973155
vt 0.723997 0.964631
vt 0.682646 0.981627
vt 0.760930 0.029571
vt 0.545544 0.749006
vt 0.375149 0.333321
vt 0.725901 0.270229
vt 0.375189 0.508348
vt 0.899195 0.832933
vt 0.688417 0.986477
vn 0.0000 1.0000 0.0000
vn -1.0000 -0.0000 0.0000
vn -0.9974 0.0388 -0.0613
vn -0.9987 0.0360 0.0361
vn -0.9985 0.0389 -0.0389
vn -0.9977 0.0360 0.0568
vn -0.4718 0.0000 0.8817
vn 0.4718 0.0000 0.8817
vn 1.0000 0.0000 0.0000
vn 0.4718 0.0000 -0.8817
vn -0.4718 0.0000 -0.8817
vn 0.4112 0.0000 0.9116
vn -0.4112 0.0000 0.9116
vn -0.4112 0.0000 -0.9116
vn 0.4112 0.0000 -0.9116
vn 0.9353 0.0000 0.3538
vn -0.9353 0.0000 0.3538
vn 0.9353 0.0000 -0.3538
vn -0.9353 0.0000 -0.3538
vn 0.8431 0.4159 0.3408
vn 0.8364 0.4152 -0.3578
vn 0.8364 0.4152 0.3579
vn 0.0000 0.1326 -0.9912
vn 0.2902 0.2510 -0.9235
vn 0.4277 0.3018 -0.8520
vn -0.4687 0.2887 -0.8348
vn -0.8967 0.3949 0.2001
vn -0.9320 0.3619 -0.0176
vn -0.8431 0.4159 -0.3408
vn 0.0000 0.1326 0.9912
vn -0.6424 0.2972 0.7064
vn -0.4291 0.2978 0.8528
vn 0.2902 0.2510 0.9235
vn 0.4168 -0.8784 -0.2340
vn 0.4323 -0.9016 0.0146
vn 0.4168 -0.8783 0.2341
vn 0.1145 -0.4642 -0.8783
vn 0.1023 -0.4663 -0.8787
vn 0.2339 -0.4394 -0.8673
vn 0.0000 -0.4813 -0.8766
vn 0.0000 -0.4812 0.8766
vn 0.1145 -0.4641 0.8784
vn 0.1023 -0.4662 0.8787
vn 0.9214 0.3886 0.0000
vn 0.1313 0.0000 -0.9913
vn 0.2599 0.0613 -0.9637
vn 0.2604 0.0000 -0.9655
vn 0.0000 0.0000 -1.0000
vn 0.1124 0.3661 -0.9238
vn 0.1313 0.0000 0.9913
vn 0.0000 0.3827 0.9239
vn 0.0000 0.0000 1.0000
vn 0.2604 0.0000 0.9655
vn 0.1124 0.3661 0.9238
vn 0.0000 -0.9237 0.3831
vn 0.0000 -0.9237 -0.3831
vn 0.0000 0.3840 0.9233
vn 0.0000 -0.3814 0.9244
vn 0.0000 0.9240 -0.3823
vn 0.0000 0.9241 0.3823
vn 0.0000 -0.3815 -0.9244
vn 0.0000 0.3839 -0.9234
vn -0.3105 0.7225 0.6177
vn 0.3003 0.6715 0.6774
vn 0.4659 0.6257 0.6257
vn 0.6540 0.7290 0.2021
vn 0.7107 0.7035 0.0010
vn 0.7114 0.7028 0.0018
vn 0.3104 0.7225 -0.6177
vn -0.3003 0.6715 -0.6774
vn -0.4659 0.6257 -0.6257
vn -0.6540 0.7290 -0.2022
vn -0.7107 0.7034 -0.0010
vn -0.7115 0.7027 -0.0018
vn 0.4611 0.6274 0.6274
vn 0.2953 0.6756 0.6756
vn -0.3003 0.6715 0.6774
vn 0.3105 0.7225 0.6177
vn -0.4659 0.6257 0.6257
vn -0.4611 0.6274 -0.6274
vn -0.2953 0.6756 -0.6756
vn 0.3003 0.6715 -0.6774
vn -0.3104 0.7225 -0.6177
vn 0.4659 0.6257 -0.6257
vn -0.2953 0.6756 0.6756
vn -0.4611 0.6274 0.6274
vn 0.2953 0.6756 -0.6756
vn 0.4611 0.6274 -0.6274
vn -0.6556 0.7179 0.2341
vn -0.2833 0.7062 0.6488
vn 0.6556 0.7179 0.2341
vn 0.2833 0.7062 0.6488
vn -0.6556 0.7179 -0.2341
vn -0.2833 0.7062 -0.6488
vn 0.6556 0.7179 -0.2341
vn 0.2833 0.7062 -0.6488
vn 0.7107 0.7034 -0.0010
vn 0.7115 0.7027 -0.0018
vn 0.6540 0.7290 -0.2022
vn -0.7114 0.7028 0.0018
vn -0.7107 0.7035 0.0010
vn -0.6540 0.7290 0.2021
vn 0.7082 0.7060 0.0000
vn 0.2542 0.1992 -0.9464
vn 0.0814 0.7048 -0.7048
vn 0.0000 0.7071 -0.7071
vn 0.0814 0.7048 0.7048
vn 0.0000 0.7071 0.7071
vn 0.2542 0.1992 0.9464
vn 0.3917 -0.8325 0.3918
vn 0.3917 -0.8325 -0.3917
vn 0.4323 -0.9016 -0.0146
vn 0.4277 0.3018 0.8521
vn 0.8431 0.4159 -0.3408
vn -0.2917 0.2662 -0.9187
vn -0.8359 0.3182 -0.4473
vn -0.9275 0.3027 -0.2194
vn -0.7564 0.4212 0.5004
vn 0.0034 1.0000 -0.0000
vn -0.0690 0.6995 -0.7113
vn 0.0089 1.0000 -0.0000
vn -0.0577 0.6826 -0.7285
vn -0.2399 -0.0036 -0.9708
vn -0.1948 -0.0421 -0.9799
vn -0.3841 -0.6514 -0.6543
vn -0.3145 -0.6900 -0.6519
vn -0.4363 -0.8998 -0.0000
vn -0.3145 -0.6900 0.6519
vn -0.3587 -0.9334 -0.0000
vn -0.1948 -0.0421 0.9799
vn -0.3841 -0.6514 0.6543
vn -0.0577 0.6826 0.7285
vn -0.2399 -0.0036 0.9708
vn -0.0690 0.6995 0.7113
vn -0.9768 0.2141 -0.0000
vn -0.3818 0.6673 0.6395
vn -0.2988 0.9543 -0.0000
vn -0.1017 0.7027 -0.7042
vn 0.0008 1.0000 -0.0000
vn -0.3235 0.0105 -0.9462
vn -0.5028 -0.6025 -0.6199
vn -0.5643 -0.8256 -0.0000
vn -0.5028 -0.6025 0.6199
vn -0.3235 0.0105 0.9462
vn -0.1017 0.7027 0.7042
vn -0.3818 0.6673 -0.6395
vn -0.5514 0.0360 -0.8334
vn -0.6843 -0.4973 -0.5334
vn -0.7287 -0.6849 -0.0000
vn -0.6843 -0.4973 0.5334
vn -0.5514 0.0360 0.8334
vn -0.5601 0.3140 -0.7666
vn -0.8988 0.3957 0.1885
vn 0.2340 -0.4393 0.8674
vn 0.0000 0.3827 -0.9239
vn 0.2599 0.0613 0.9637
vn -0.9275 0.3028 -0.2194
usemtl 09_-_Default
s off
f 1/1/1 2/2/1 3/3/1
f 4/4/1 2/2/1 5/5/1
f 6/6/1 7/7/1 8/8/1
f 9/9/1 10/10/1 11/11/1
f 12/12/1 13/13/1 14/14/1
f 15/15/1 16/16/1 17/17/1
f 18/18/1 19/19/1 20/20/1
f 21/21/1 7/7/1 22/22/1
f 23/23/1 9/9/1 24/24/1
f 25/25/1 26/26/1 27/27/1
f 28/28/1 14/14/1 13/13/1
f 15/15/1 22/22/1 29/29/1
f 30/30/1 17/17/1 16/16/1
f 12/12/1 27/27/1 31/31/1
f 32/32/1 19/19/1 6/6/1
f 7/7/1 33/33/1 8/8/1
f 34/34/1 9/9/1 11/11/1
f 26/26/1 35/35/1 10/10/1
f 36/36/2 1/1/2 37/37/2
f 38/38/2 1/1/2 39/39/2
f 40/40/1 3/3/1 41/41/1
f 5/5/1 42/42/1 43/43/1
f 42/42/2 44/44/2 43/43/2
f 1/1/2 45/45/2 37/37/2
f 46/46/2 47/47/2 48/48/2
f 49/49/3 50/50/3 51/51/3
f 52/52/1 41/41/1 3/3/1
f 52/52/1 2/2/1 4/4/1
f 53/53/4 54/54/4 55/55/4
f 56/56/5 50/50/5 49/49/5
f 36/36/2 39/39/2 1/1/2
f 57/57/2 42/42/2 38/38/2
f 58/58/2 46/46/2 59/59/2
f 60/60/2 59/59/2 61/61/2
f 1/1/1 42/42/1 2/2/1
f 6/6/1 19/19/1 7/7/1
f 9/9/1 26/26/1 10/10/1
f 12/12/1 31/31/1 13/13/1
f 15/15/1 29/29/1 16/16/1
f 18/18/1 28/28/1 19/19/1
f 21/21/1 62/62/1 7/7/1
f 23/23/1 30/30/1 9/9/1
f 25/25/1 63/63/1 26/26/1
f 28/28/1 18/18/1 14/14/1
f 15/15/1 21/21/1 22/22/1
f 30/30/1 23/23/1 17/17/1
f 12/12/1 25/25/1 27/27/1
f 32/32/1 20/20/1 19/19/1
f 7/7/1 62/62/1 33/33/1
f 34/34/1 24/24/1 9/9/1
f 26/26/1 63/63/1 35/35/1
f 55/55/6 54/54/6 37/37/6
f 54/54/2 36/36/2 37/37/2
f 38/38/2 42/42/2 1/1/2
f 40/40/1 1/1/1 3/3/1
f 5/5/1 2/2/1 42/42/1
f 42/42/2 51/51/2 44/44/2
f 1/1/2 40/40/2 45/45/2
f 46/46/2 64/64/2 47/47/2
f 42/42/2 57/57/2 51/51/2
f 57/57/2 49/49/2 51/51/2
f 52/52/1 3/3/1 2/2/1
f 58/58/2 64/64/2 46/46/2
f 60/60/2 58/58/2 59/59/2
s 1
f 65/65/7 66/66/8 67/67/7
f 68/68/9 69/69/9 70/70/9
f 71/71/10 72/72/11 73/73/10
f 74/74/2 75/75/2 76/76/2
f 77/77/12 78/78/7 79/79/12
f 80/80/13 81/81/8 82/82/13
f 83/83/14 84/84/10 85/85/14
f 86/86/15 87/87/11 88/88/15
f 89/89/7 67/67/7 78/78/7
f 90/90/8 91/91/8 81/81/8
f 92/92/10 73/73/10 84/84/10
f 93/93/11 94/94/11 87/87/11
f 95/95/16 77/77/12 79/96/12
f 96/97/17 80/98/13 82/82/13
f 86/99/15 97/100/18 98/101/18
f 99/102/19 83/83/14 85/103/14
f 97/100/18 70/70/9 98/101/18
f 95/95/16 100/104/9 101/105/16
f 96/97/17 76/76/2 102/106/17
f 99/102/19 103/107/2 104/108/19
f 105/109/20 106/110/21 107/111/22
f 108/112/23 109/113/24 110/114/25
f 108/112/23 55/115/26 111/116/23
f 112/117/27 53/53/28 113/118/29
f 114/119/30 50/120/31 115/121/32
f 114/119/30 116/122/33 117/123/30
f 106/110/34 118/124/35 107/111/36
f 109/113/37 119/125/38 120/126/39
f 37/127/40 111/116/40 55/115/40
f 117/123/41 51/128/41 50/120/41
f 116/122/42 121/129/43 117/123/41
f 120/130/9 122/131/44 118/132/9
f 119/125/45 123/133/46 120/126/47
f 37/127/48 124/134/49 119/125/45
f 121/129/50 44/135/51 51/128/52
f 118/136/53 125/137/54 121/129/50
f 56/138/55 46/46/56 53/139/56
f 57/140/57 61/61/58 49/141/58
f 39/142/59 58/58/60 38/143/60
f 54/144/61 47/47/62 36/145/62
f 24/24/63 81/81/64 23/23/65
f 33/33/66 100/104/67 8/8/68
f 20/20/69 87/87/70 18/18/71
f 35/35/72 103/107/73 10/10/74
f 23/23/65 91/91/75 17/17/76
f 89/89/77 62/62/78 21/21/79
f 18/18/71 94/94/80 14/14/81
f 92/92/82 63/63/83 25/25/84
f 91/91/75 15/15/85 17/17/76
f 65/65/86 21/21/79 15/15/85
f 94/94/80 12/12/87 14/14/81
f 71/71/88 25/25/84 12/12/87
f 24/24/63 96/97/89 82/82/90
f 101/105/91 62/62/78 77/77/92
f 104/108/93 63/63/83 83/83/94
f 20/20/69 97/100/95 88/88/96
f 8/8/68 68/68/97 6/6/98
f 68/68/97 32/32/99 6/6/98
f 103/107/73 11/11/100 10/10/74
f 74/74/101 34/34/102 11/11/100
f 122/131/44 52/52/103 4/4/103
f 52/146/104 124/134/49 41/41/105
f 124/134/49 40/40/106 41/41/105
f 44/135/51 5/5/107 43/43/108
f 125/137/54 4/147/109 5/5/107
f 107/111/36 118/124/35 116/148/110
f 106/110/34 109/149/111 120/150/112
f 126/151/113 107/111/22 116/148/33
f 110/152/25 106/110/21 127/153/114
f 128/154/115 53/53/28 55/55/116
f 115/155/32 56/56/117 112/117/118
f 53/139/56 48/48/61 54/156/61
f 49/157/58 59/59/55 56/138/55
f 38/143/60 60/60/57 57/158/57
f 36/159/62 64/64/59 39/142/59
f 129/160/119 130/161/120 131/162/121
f 132/163/122 133/164/123 130/161/120
f 134/165/124 135/166/125 133/164/123
f 136/167/126 137/168/127 135/166/125
f 138/169/128 137/170/127 139/171/129
f 140/172/130 141/173/131 138/169/128
f 142/174/132 143/175/133 140/172/130
f 129/160/119 144/176/134 142/174/132
f 145/177/135 146/178/136 147/179/137
f 131/162/121 148/180/138 149/181/139
f 130/161/120 150/182/140 148/180/138
f 133/164/123 151/183/141 150/182/140
f 135/166/125 152/184/142 151/183/141
f 141/173/131 152/185/142 137/170/127
f 143/175/133 153/186/143 141/173/131
f 144/176/134 154/187/144 143/175/133
f 131/162/121 155/188/145 144/176/134
f 149/181/139 156/189/146 147/179/137
f 148/180/138 157/190/147 156/189/146
f 150/182/140 158/191/148 157/190/147
f 151/183/141 159/192/149 158/191/148
f 153/186/143 159/193/149 152/185/142
f 154/187/144 160/194/150 153/186/143
f 155/188/145 161/195/151 154/187/144
f 149/181/139 146/178/136 155/188/145
f 160/194/150 145/196/135 159/197/149
f 156/189/146 145/198/135 147/179/137
f 145/196/135 158/199/148 159/197/149
f 65/65/7 91/91/8 66/66/8
f 68/68/9 100/104/9 69/69/9
f 71/71/10 94/94/11 72/72/11
f 74/74/2 103/107/2 75/75/2
f 77/77/12 89/89/7 78/78/7
f 80/80/13 90/90/8 81/81/8
f 83/83/14 92/92/10 84/84/10
f 86/86/15 93/93/11 87/87/11
f 89/89/7 65/65/7 67/67/7
f 90/90/8 66/66/8 91/91/8
f 92/92/10 71/71/10 73/73/10
f 93/93/11 72/72/11 94/94/11
f 95/95/16 101/105/16 77/77/12
f 96/97/17 102/106/17 80/98/13
f 86/99/15 88/88/15 97/100/18
f 99/102/19 104/108/19 83/83/14
f 97/100/18 68/68/9 70/70/9
f 95/95/16 69/69/9 100/104/9
f 96/97/17 74/74/2 76/76/2
f 99/102/19 75/75/2 103/107/2
f 105/109/20 127/153/114 106/110/21
f 108/112/23 111/116/23 109/113/24
f 108/112/23 128/200/152 55/115/26
f 112/117/27 56/56/153 53/53/28
f 114/119/30 117/123/30 50/120/31
f 114/119/30 126/201/113 116/122/33
f 106/110/34 120/150/112 118/124/35
f 109/113/37 111/116/40 119/125/38
f 37/127/40 119/125/38 111/116/40
f 117/123/41 121/129/43 51/128/41
f 116/122/42 118/136/154 121/129/43
f 120/130/9 123/202/44 122/131/44
f 119/125/45 124/134/49 123/133/46
f 37/127/48 45/203/155 124/134/49
f 121/129/50 125/137/54 44/135/51
f 118/136/53 122/204/156 125/137/54
f 56/138/55 59/59/55 46/46/56
f 57/140/57 60/60/57 61/61/58
f 39/142/59 64/64/59 58/58/60
f 54/144/61 48/48/61 47/47/62
f 24/24/63 82/82/90 81/81/64
f 33/33/66 101/105/91 100/104/67
f 20/20/69 88/88/96 87/87/70
f 35/35/72 104/108/93 103/107/73
f 23/23/65 81/81/64 91/91/75
f 89/89/77 77/77/92 62/62/78
f 18/18/71 87/87/70 94/94/80
f 92/92/82 83/83/94 63/63/83
f 91/91/75 65/65/86 15/15/85
f 65/65/86 89/89/77 21/21/79
f 94/94/80 71/71/88 12/12/87
f 71/71/88 92/92/82 25/25/84
f 24/24/63 34/34/102 96/97/89
f 101/105/91 33/33/66 62/62/78
f 104/108/93 35/35/72 63/63/83
f 20/20/69 32/32/99 97/100/95
f 8/8/68 100/104/67 68/68/97
f 68/68/97 97/100/95 32/32/99
f 103/107/73 74/74/101 11/11/100
f 74/74/101 96/97/89 34/34/102
f 122/131/44 123/202/44 52/52/103
f 52/146/104 123/133/46 124/134/49
f 124/134/49 45/203/155 40/40/106
f 44/135/51 125/137/54 5/5/107
f 125/137/54 122/204/156 4/147/109
f 126/151/113 105/109/20 107/111/22
f 110/152/25 109/149/24 106/110/21
f 128/154/115 113/118/29 53/53/28
f 115/155/32 50/50/31 56/56/157
f 53/139/56 46/46/56 48/48/61
f 49/157/58 61/61/58 59/59/55
f 38/143/60 58/58/60 60/60/57
f 36/159/62 47/47/62 64/64/59
f 129/160/119 132/163/122 130/161/120
f 132/163/122 134/165/124 133/164/123
f 134/165/124 136/167/126 135/166/125
f 136/167/126 139/205/129 137/168/127
f 138/169/128 141/173/131 137/170/127
f 140/172/130 143/175/133 141/173/131
f 142/174/132 144/176/134 143/175/133
f 129/160/119 131/162/121 144/176/134
f 145/177/135 161/195/151 146/178/136
f 131/162/121 130/161/120 148/180/138
f 130/161/120 133/164/123 150/182/140
f 133/164/123 135/166/125 151/183/141
f 135/166/125 137/168/127 152/184/142
f 141/173/131 153/186/143 152/185/142
f 143/175/133 154/187/144 153/186/143
f 144/176/134 155/188/145 154/187/144
f 131/162/121 149/181/139 155/188/145
f 149/181/139 148/180/138 156/189/146
f 148/180/138 150/182/140 157/190/147
f 150/182/140 151/183/141 158/191/148
f 151/183/141 152/184/142 159/192/149
f 153/186/143 160/194/150 159/193/149
f 154/187/144 161/195/151 160/194/150
f 155/188/145 146/178/136 161/195/151
f 149/181/139 147/179/137 146/178/136
f 160/194/150 161/195/151 145/196/135
f 156/189/146 157/190/147 145/198/135
f 145/196/135 157/206/147 158/199/148
