# Blender v2.79 (sub 0) OBJ File: ''
# www.blender.org
mtllib floor.mtl
o Plane001_Untitled.002
v 4.306291 -0.000000 5.470307
v -3.882595 0.000000 -2.718578
v -3.882595 -0.000000 5.470307
v 4.306291 0.000000 -2.718578
v 4.306291 -0.000000 1.375865
v 0.211848 0.000000 -2.718578
v -3.882595 -0.000000 1.375864
v 0.211848 -0.000000 1.375865
v 0.211848 -0.000000 5.470307
v 4.306291 0.000000 -0.671357
v 2.259070 0.000000 -2.718578
v -3.882595 -0.000000 3.423085
v -1.835374 0.000000 -0.671357
v -1.835374 -0.000000 5.470307
v 4.306291 -0.000000 3.423086
v -1.835373 0.000000 -2.718578
v -3.882595 0.000000 -0.671357
v 2.259069 -0.000000 3.423086
v 2.259069 -0.000000 5.470307
v 0.211848 0.000000 -0.671357
v 2.259069 -0.000000 1.375865
v 2.259070 0.000000 -0.671357
v -1.835374 -0.000000 3.423086
v 0.211848 -0.000000 3.423086
v -1.835374 -0.000000 1.375864
vt 1.000000 0.000000
vt 0.750000 0.250000
vt 0.750000 0.000000
vt 1.000000 0.250000
vt 0.500000 0.500000
vt 0.500000 0.750000
vt 0.250000 0.750000
vt 0.750000 0.500000
vt 1.000000 0.500000
vt 1.000000 0.750000
vt 0.750000 0.750000
vt 0.500000 0.000000
vt 0.250000 0.250000
vt 0.250000 0.000000
vt 0.500000 0.250000
vt 0.250000 0.500000
vt 0.000000 0.750000
vt 0.000000 0.500000
vt 0.000000 1.000000
vt 0.000000 0.250000
vt 0.000000 0.000000
vt 0.750000 1.000000
vt 0.500000 1.000000
vt 1.000000 1.000000
vt 0.250000 1.000000
vn 0.0000 1.0000 0.0000
usemtl 03_-_Default
s 1
f 1/1/1 18/2/1 19/3/1
f 1/1/1 15/4/1 18/2/1
f 8/5/1 20/6/1 13/7/1
f 8/5/1 21/8/1 20/6/1
f 5/9/1 10/10/1 22/11/1
f 9/12/1 23/13/1 14/14/1
f 9/12/1 24/15/1 23/13/1
f 8/5/1 13/7/1 25/16/1
f 25/16/1 17/17/1 7/18/1
f 25/16/1 13/7/1 17/17/1
f 13/7/1 2/19/1 17/17/1
f 23/13/1 25/16/1 7/18/1
f 23/13/1 24/15/1 25/16/1
f 24/15/1 8/5/1 25/16/1
f 14/14/1 12/20/1 3/21/1
f 14/14/1 23/13/1 12/20/1
f 23/13/1 7/18/1 12/20/1
f 22/11/1 11/22/1 6/23/1
f 22/11/1 10/10/1 11/22/1
f 10/10/1 4/24/1 11/22/1
f 20/6/1 22/11/1 6/23/1
f 20/6/1 21/8/1 22/11/1
f 21/8/1 5/9/1 22/11/1
f 13/7/1 16/25/1 2/19/1
f 13/7/1 20/6/1 16/25/1
f 20/6/1 6/23/1 16/25/1
f 18/2/1 21/8/1 8/5/1
f 18/2/1 15/4/1 21/8/1
f 15/4/1 5/9/1 21/8/1
f 19/3/1 24/15/1 9/12/1
f 19/3/1 18/2/1 24/15/1
f 18/2/1 8/5/1 24/15/1
