# Blender v2.79 (sub 0) OBJ File: ''
# www.blender.org
mtllib light.mtl
o Icosphere_Icosphere.001
v 0.000000 -1.000000 0.000000
v 0.723600 -0.447215 0.525720
v -0.276385 -0.447215 0.850640
v -0.894425 -0.447215 0.000000
v -0.276385 -0.447215 -0.850640
v 0.723600 -0.447215 -0.525720
v 0.276385 0.447215 0.850640
v -0.723600 0.447215 0.525720
v -0.723600 0.447215 -0.525720
v 0.276385 0.447215 -0.850640
v 0.894425 0.447215 0.000000
v 0.000000 1.000000 0.000000
vt 0.999599 0.265177
vt 1.435637 0.093269
vt 1.210760 0.360563
vt 0.764168 0.301795
vt 1.073525 0.590179
vt 0.892505 0.558009
vt 0.435637 0.093269
vt 0.573525 0.409821
vt 0.210760 0.360563
vt 0.392505 0.441991
vt 0.073525 0.590179
vt 0.264168 0.698205
vt 0.935637 0.906731
vt 0.710760 0.639437
vt 1.264168 0.698205
vt 0.499599 0.734823
vn 0.1876 -0.7947 0.5774
vn 0.6071 -0.7947 0.0000
vn -0.4911 -0.7947 0.3568
vn -0.4911 -0.7947 -0.3568
vn 0.1876 -0.7947 -0.5774
vn 0.9822 -0.1876 0.0000
vn 0.3035 -0.1876 0.9342
vn -0.7946 -0.1876 0.5774
vn -0.7946 -0.1876 -0.5774
vn 0.3035 -0.1876 -0.9342
vn 0.7946 0.1876 0.5774
vn -0.3035 0.1876 0.9342
vn -0.9822 0.1876 0.0000
vn -0.3035 0.1876 -0.9342
vn 0.7946 0.1876 -0.5774
vn 0.4911 0.7947 0.3568
vn -0.1876 0.7947 0.5774
vn -0.6071 0.7947 0.0000
vn -0.1876 0.7947 -0.5774
vn 0.4911 0.7947 -0.3568
usemtl None
s off
f 1/1/1 2/2/1 3/3/1
f 2/2/2 1/1/2 6/4/2
f 1/1/3 3/3/3 4/5/3
f 1/1/4 4/5/4 5/6/4
f 1/1/5 5/6/5 6/4/5
f 2/7/6 6/4/6 11/8/6
f 3/9/7 2/7/7 7/10/7
f 4/11/8 3/9/8 8/12/8
f 5/6/9 4/5/9 9/13/9
f 6/4/10 5/6/10 10/14/10
f 2/7/11 11/8/11 7/10/11
f 3/9/12 7/10/12 8/12/12
f 4/5/13 8/15/13 9/13/13
f 5/6/14 9/13/14 10/14/14
f 6/4/15 10/14/15 11/8/15
f 7/10/16 11/8/16 12/16/16
f 8/12/17 7/10/17 12/16/17
f 9/13/18 8/15/18 12/16/18
f 10/14/19 9/13/19 12/16/19
f 11/8/20 10/14/20 12/16/20
