# Blender v2.79 (sub 0) OBJ File: ''
# www.blender.org
mtllib particles.mtl
o Plane004_Untitled.007
v 1.316631 2.981838 2.937066
v 1.204044 2.952063 2.937066
v 1.235901 2.914097 2.937066
v 1.302119 2.999133 2.962010
v 1.221389 2.931392 2.912449
v 1.221389 2.931392 2.962010
v 1.284774 3.019803 2.937066
v 1.302119 2.999133 2.912449
vt 0.997986 0.709121
vt -0.041662 0.334556
vt 0.290879 0.002014
vt 0.997986 0.709121
vt -0.041662 0.334556
vt 0.290879 0.002014
vt 0.665444 1.041662
vt 0.665444 1.041662
vn 0.0000 0.0000 1.0000
vn -0.6428 0.7660 0.0000
usemtl 08_-_Default
s 1
f 1/1/1 2/2/1 3/3/1
f 4/4/2 5/5/2 6/6/2
f 1/1/1 7/7/1 2/2/1
f 4/4/2 8/8/2 5/5/2
o Plane005_Untitled.008
v -1.293017 3.187611 2.937066
v -1.193931 3.103916 2.937066
v -1.179645 3.157233 2.937066
v -1.299525 3.163323 2.964847
v -1.186153 3.132945 2.909649
v -1.186153 3.132945 2.964847
v -1.307303 3.134294 2.937066
v -1.299525 3.163323 2.909649
vt 0.997986 0.709121
vt -0.041662 0.334556
vt 0.290879 0.002014
vt 0.997986 0.709121
vt -0.041662 0.334556
vt 0.290879 0.002014
vt 0.665444 1.041662
vt 0.665444 1.041662
vn 0.0000 0.0000 1.0000
vn -0.2588 -0.9659 0.0000
usemtl 08_-_Default
s 1
f 9/9/3 10/10/3 11/11/3
f 12/12/4 13/13/4 14/14/4
f 9/9/3 15/15/3 10/10/3
f 12/12/4 16/16/4 13/13/4
o Plane006_Untitled.009
v 0.222660 1.421264 4.631115
v 0.200587 1.512969 4.539512
v 0.206833 1.532380 4.591620
v 0.247549 1.414867 4.603143
v 0.176616 1.521124 4.572062
v 0.231722 1.525982 4.563647
v 0.216414 1.401853 4.579007
v 0.192443 1.410008 4.611557
vt 0.997986 0.709121
vt -0.041662 0.334556
vt 0.290879 0.002014
vt 0.997986 0.709121
vt -0.041662 0.334556
vt 0.290879 0.002014
vt 0.665444 1.041662
vt 0.665444 1.041662
vn 0.9848 0.0868 -0.1504
vn -0.1116 -0.3469 -0.9312
usemtl 08_-_Default
s 1
f 17/17/5 18/18/5 19/19/5
f 20/20/6 21/21/6 22/22/6
f 17/17/5 23/23/5 18/18/5
f 20/20/6 24/24/6 21/21/6
o Plane007_Untitled.010
v -0.728649 2.619701 3.918000
v -0.677272 2.547251 3.829012
v -0.672627 2.599945 3.820966
v -0.707444 2.595697 3.935130
v -0.697759 2.575941 3.811343
v -0.651422 2.575941 3.838096
v -0.733295 2.567008 3.926046
v -0.753782 2.595697 3.908377
vt 0.997986 0.709121
vt -0.041662 0.334556
vt 0.290879 0.002014
vt 0.997986 0.709121
vt -0.041662 0.334556
vt 0.290879 0.002014
vt 0.665444 1.041662
vt 0.665444 1.041662
vn 0.8660 -0.0000 0.5000
vn -0.0868 -0.9848 0.1504
usemtl 08_-_Default
s 1
f 25/25/7 26/26/7 27/27/7
f 28/28/8 29/29/8 30/30/8
f 25/25/7 31/31/7 26/26/7
f 28/28/8 32/32/8 29/29/8
o Plane008_Untitled.011
v 0.407029 2.978848 2.177873
v 0.353363 2.950463 2.270825
v 0.368549 2.914269 2.244524
v 0.420705 2.995335 2.201744
v 0.341307 2.930757 2.244771
v 0.382225 2.930757 2.268395
v 0.391844 3.015041 2.204174
v 0.379788 2.995335 2.178120
vt 0.997986 0.709121
vt -0.041662 0.334556
vt 0.290879 0.002014
vt 0.997986 0.709121
vt -0.041662 0.334556
vt 0.290879 0.002014
vt 0.665444 1.041662
vt 0.665444 1.041662
vn 0.8660 0.0000 0.5000
vn -0.3214 0.7660 0.5567
usemtl 08_-_Default
s 1
f 33/33/9 34/34/9 35/35/9
f 36/36/10 37/37/10 38/38/10
f 33/33/9 39/39/9 34/34/9
f 36/36/10 40/40/10 37/37/10
o Plane009_Untitled.012
v -0.374645 2.828486 2.739494
v -0.286724 2.800102 2.801057
v -0.311601 2.763908 2.783638
v -0.349673 2.844974 2.727951
v -0.313729 2.780396 2.810797
v -0.286629 2.780396 2.772094
v -0.349767 2.864680 2.756914
v -0.376773 2.844974 2.766654
vt 0.997986 0.709121
vt -0.041662 0.334556
vt 0.290879 0.002014
vt 0.997986 0.709121
vt -0.041662 0.334556
vt 0.290879 0.002014
vt 0.665444 1.041662
vt 0.665444 1.041662
vn 0.5736 0.0000 -0.8192
vn 0.5265 0.7660 0.3687
usemtl 08_-_Default
s 1
f 41/41/11 42/42/11 43/43/11
f 44/44/12 45/45/12 46/46/12
f 41/41/11 47/47/11 42/42/11
f 44/44/12 48/48/12 45/45/12
o Plane010_Untitled.013
v 0.800714 2.110214 1.917851
v 0.744730 2.201918 1.993642
v 0.780633 2.221330 1.955363
v 0.763288 2.103817 1.916766
v 0.785074 2.210074 1.991082
v 0.743206 2.214932 1.954278
v 0.764812 2.090803 1.956131
v 0.805155 2.098958 1.953570
vt 0.997986 0.709121
vt -0.041662 0.334556
vt 0.290879 0.002014
vt 0.997986 0.709121
vt -0.041662 0.334556
vt 0.290879 0.002014
vt 0.665444 1.041662
vt 0.665444 1.041662
vn -0.7482 0.0868 -0.6577
vn -0.6416 -0.3469 0.6841
usemtl 08_-_Default
s 1
f 49/49/13 50/50/13 51/51/13
f 52/52/14 53/53/14 54/54/14
f 49/49/13 55/55/13 50/50/13
f 52/52/14 56/56/14 53/53/14
o Plane011_Untitled.014
v 0.865926 2.619701 3.104979
v 0.764733 2.547251 3.122822
v 0.755583 2.599945 3.124435
v 0.865418 2.595697 3.077724
v 0.764367 2.575941 3.149873
v 0.755075 2.575941 3.097180
v 0.875076 2.567008 3.103365
v 0.874709 2.595697 3.130417
vt 0.997986 0.709121
vt -0.041662 0.334556
vt 0.290879 0.002014
vt 0.997986 0.709121
vt -0.041662 0.334556
vt 0.290879 0.002014
vt 0.665444 1.041662
vt 0.665444 1.041662
vn -0.1737 0.0000 -0.9848
vn -0.1736 -0.0000 -0.9848
vn 0.1710 -0.9848 -0.0302
usemtl 08_-_Default
s 1
f 57/57/15 58/58/16 59/59/16
f 60/60/17 61/61/17 62/62/17
f 57/57/15 63/63/15 58/58/16
f 60/60/17 64/64/17 61/61/17
o Plane012_Untitled.015
v 0.477256 3.187611 4.167841
v 0.413565 3.103916 4.091938
v 0.404382 3.157233 4.080994
v 0.502720 3.163323 4.154970
v 0.387562 3.132945 4.103602
v 0.429846 3.132945 4.068122
v 0.486439 3.134294 4.178785
v 0.460436 3.163323 4.190451
vt 0.997986 0.709121
vt -0.041662 0.334556
vt 0.290879 0.002014
vt 0.997986 0.709121
vt -0.041662 0.334556
vt 0.290879 0.002014
vt 0.665444 1.041662
vt 0.665444 1.041662
vn 0.7660 -0.0000 -0.6428
vn 0.1664 -0.9659 0.1983
usemtl 08_-_Default
s 1
f 65/65/18 66/66/18 67/67/18
f 68/68/19 69/69/19 70/70/19
f 65/65/18 71/71/18 66/66/18
f 68/68/19 72/72/19 69/69/19
o Plane013_Untitled.016
v -0.108242 2.794648 3.565187
v -0.117597 2.766263 3.458264
v -0.114950 2.730069 3.488519
v -0.133137 2.811136 3.553478
v -0.092776 2.746557 3.472691
v -0.139844 2.746557 3.476809
v -0.110889 2.830842 3.534933
v -0.086069 2.811136 3.549360
vt 0.997986 0.709121
vt -0.041662 0.334556
vt 0.290879 0.002014
vt 0.997986 0.709121
vt -0.041662 0.334556
vt 0.290879 0.002014
vt 0.665444 1.041662
vt 0.665444 1.041662
vn -0.9962 0.0000 0.0872
vn -0.0560 0.7660 -0.6403
usemtl 08_-_Default
s 1
f 73/73/20 74/74/20 75/75/20
f 76/76/21 77/77/21 78/78/21
f 73/73/20 79/79/20 74/74/20
f 76/76/21 80/80/21 77/77/21
o Plane014_Untitled.017
v -2.188941 3.680655 3.353530
v -2.083239 3.652270 3.334893
v -2.113148 3.616076 3.340166
v -2.179445 3.697142 3.327710
v -2.095448 3.632564 3.360876
v -2.103652 3.632564 3.314346
v -2.159032 3.716848 3.348257
v -2.171240 3.697142 3.374240
vt 0.997986 0.709121
vt -0.041662 0.334556
vt 0.290879 0.002014
vt 0.997986 0.709121
vt -0.041662 0.334556
vt 0.290879 0.002014
vt 0.665444 1.041662
vt 0.665444 1.041662
vn -0.1736 0.0000 -0.9848
vn 0.6330 0.7660 -0.1116
vn 0.6330 0.7661 -0.1116
usemtl 08_-_Default
s 1
f 81/81/22 82/82/22 83/83/22
f 84/84/23 85/85/24 86/86/24
f 81/81/22 87/87/22 82/82/22
f 84/84/23 88/88/23 85/85/24
o Plane015_Untitled.018
v -0.983402 3.563275 2.427097
v -0.911033 3.533501 2.513344
v -0.931511 3.495535 2.488940
v -0.954966 3.580570 2.422181
v -0.941040 3.512830 2.515880
v -0.903074 3.512830 2.484023
v -0.962925 3.601241 2.451501
v -0.992932 3.580570 2.454038
vt 0.997986 0.709121
vt -0.041662 0.334556
vt 0.290879 0.002014
vt 0.997986 0.709121
vt -0.041662 0.334556
vt 0.290879 0.002014
vt 0.665444 1.041662
vt 0.665444 1.041662
vn 0.7661 -0.0000 -0.6428
vn 0.7660 -0.0000 -0.6428
vn 0.4132 0.7660 0.4924
usemtl 08_-_Default
s 1
f 89/89/25 90/90/26 91/91/26
f 92/92/27 93/93/27 94/94/27
f 89/89/25 95/95/25 90/90/26
f 92/92/27 96/96/27 93/93/27
o Plane016_Untitled.019
v -0.027785 2.794648 2.859377
v 0.077916 2.766263 2.878015
v 0.048007 2.730069 2.872741
v -0.010031 2.811136 2.838361
v 0.057557 2.746557 2.898255
v 0.065761 2.746557 2.851725
v 0.002124 2.830842 2.864650
v -0.018236 2.811136 2.884891
vt 0.997986 0.709121
vt -0.041662 0.334556
vt 0.290879 0.002014
vt 0.997986 0.709121
vt -0.041662 0.334556
vt 0.290879 0.002014
vt 0.665444 1.041662
vt 0.665444 1.041662
vn 0.1736 -0.0000 -0.9848
vn 0.6330 0.7660 0.1116
usemtl 08_-_Default
s 1
f 97/97/28 98/98/28 99/99/28
f 100/100/29 101/101/29 102/102/29
f 97/97/28 103/103/28 98/98/28
f 100/100/29 104/104/29 101/101/29
o Plane017_Untitled.020
v 0.183120 2.607678 3.406466
v 0.192076 2.535229 3.304104
v 0.192886 2.587922 3.294848
v 0.209578 2.583674 3.413030
v 0.166041 2.563918 3.296748
v 0.219343 2.563918 3.301411
v 0.182310 2.554985 3.415722
v 0.156276 2.583674 3.408366
vt 0.997986 0.709121
vt -0.041662 0.334556
vt 0.290879 0.002014
vt 0.997986 0.709121
vt -0.041662 0.334556
vt 0.290879 0.002014
vt 0.665444 1.041662
vt 0.665444 1.041662
vn 0.9962 -0.0000 0.0872
vn -0.0151 -0.9848 0.1730
usemtl 08_-_Default
s 1
f 105/105/30 106/106/30 107/107/30
f 108/108/31 109/109/31 110/110/31
f 105/105/30 111/111/30 106/106/30
f 108/108/31 112/112/31 109/109/31
o Plane018_Untitled.021
v -0.805229 3.187611 3.116168
v -0.715427 3.103916 3.074293
v -0.702479 3.157233 3.068255
v -0.799386 3.163323 3.144096
v -0.719964 3.132945 3.046157
v -0.696636 3.132945 3.096183
v -0.818176 3.134294 3.122206
v -0.822714 3.163323 3.094070
vt 0.997986 0.709121
vt -0.041662 0.334556
vt 0.290879 0.002014
vt 0.997986 0.709121
vt -0.041662 0.334556
vt 0.290879 0.002014
vt 0.665444 1.041662
vt 0.665444 1.041662
vn 0.4226 0.0000 0.9063
vn -0.2346 -0.9659 0.1094
usemtl 08_-_Default
s 1
f 113/113/32 114/114/32 115/115/32
f 116/116/33 117/117/33 118/118/33
f 113/113/32 119/119/32 114/114/32
f 116/116/33 120/120/33 117/117/33
o Plane019_Untitled.022
v 0.648214 2.828486 2.812829
v 0.565993 2.800102 2.881821
v 0.589258 2.763908 2.862299
v 0.652901 2.844974 2.839938
v 0.563574 2.780396 2.853214
v 0.593945 2.780396 2.889408
v 0.624949 2.864680 2.832351
v 0.622530 2.844974 2.803744
vt 0.997986 0.709121
vt -0.041662 0.334556
vt 0.290879 0.002014
vt 0.997986 0.709121
vt -0.041662 0.334556
vt 0.290879 0.002014
vt 0.665444 1.041662
vt 0.665444 1.041662
vn 0.6428 -0.0000 0.7660
vn -0.4924 0.7660 0.4132
usemtl 08_-_Default
s 1
f 121/121/34 122/122/34 123/123/34
f 124/124/35 125/125/35 126/126/35
f 121/121/34 127/127/34 122/122/34
f 124/124/35 128/128/35 125/125/35
o Plane020_Untitled.023
v 1.135110 2.978848 3.563376
v 1.059215 2.950463 3.487481
v 1.080690 2.914269 3.508956
v 1.108512 2.995335 3.570408
v 1.087502 2.930757 3.482579
v 1.054092 2.930757 3.515988
v 1.113635 3.015041 3.541902
v 1.141922 2.995335 3.536999
vt 0.997986 0.709121
vt -0.041662 0.334556
vt 0.290879 0.002014
vt 0.997986 0.709121
vt -0.041662 0.334556
vt 0.290879 0.002014
vt 0.665444 1.041662
vt 0.665444 1.041662
vn -0.7071 -0.0000 0.7071
vn -0.4545 0.7660 -0.4545
usemtl 08_-_Default
s 1
f 129/129/36 130/130/36 131/131/36
f 132/132/37 133/133/37 134/134/37
f 129/129/36 135/135/36 130/130/36
f 132/132/37 136/136/37 133/133/37
o Plane021_Untitled.024
v 0.040290 3.604092 2.938561
v 0.000396 3.508097 2.899583
v 0.040112 3.504555 2.924930
v 0.009317 3.603016 2.946821
v 0.034732 3.508823 2.893835
v 0.009139 3.503479 2.933190
v 0.000574 3.607634 2.913214
v 0.034910 3.608360 2.907466
vt 0.997986 0.709121
vt -0.041662 0.334556
vt 0.290879 0.002014
vt 0.997986 0.709121
vt -0.041662 0.334556
vt 0.290879 0.002014
vt 0.665444 1.041662
vt 0.665444 1.041662
vn -0.5417 -0.1131 0.8329
vn -0.8406 0.0750 -0.5365
usemtl 08_-_Default
s 1
f 137/137/38 138/138/38 139/139/38
f 140/140/39 141/141/39 142/142/39
f 137/137/38 143/143/38 138/138/38
f 140/140/39 144/144/39 141/141/39
o Plane022_Untitled.025
v 2.699965 2.933612 3.563376
v 2.647335 2.995222 3.487481
v 2.620669 2.962662 3.508956
v 2.706362 2.964244 3.570408
v 2.638492 2.961901 3.482579
v 2.627065 2.993295 3.515988
v 2.726631 2.966171 3.541902
v 2.717789 2.932850 3.536999
vt 0.997986 0.709121
vt -0.041662 0.334556
vt 0.290879 0.002014
vt 0.997986 0.709121
vt -0.041662 0.334556
vt 0.290879 0.002014
vt 0.665444 1.041662
vt 0.665444 1.041662
vn -0.2419 0.6645 0.7071
vn -0.2419 0.6644 0.7071
vn 0.5644 0.6891 -0.4545
usemtl 08_-_Default
s 1
f 145/145/40 146/146/41 147/147/41
f 148/148/42 149/149/42 150/150/42
f 145/145/40 151/151/40 146/146/41
f 148/148/42 152/152/42 149/149/42
o Plane023_Untitled.026
v -0.362371 4.431055 2.938561
v -0.402264 4.335060 2.899583
v -0.362549 4.331517 2.924930
v -0.393344 4.429979 2.946821
v -0.367929 4.335785 2.893835
v -0.393522 4.330441 2.933190
v -0.402086 4.434597 2.913214
v -0.367751 4.435322 2.907466
vt 0.997986 0.709121
vt -0.041662 0.334556
vt 0.290879 0.002014
vt 0.997986 0.709121
vt -0.041662 0.334556
vt 0.290879 0.002014
vt 0.665444 1.041662
vt 0.665444 1.041662
vn -0.5417 -0.1131 0.8329
vn -0.8406 0.0750 -0.5365
usemtl 08_-_Default
s 1
f 153/153/43 154/154/43 155/155/43
f 156/156/44 157/157/44 158/158/44
f 153/153/43 159/159/43 154/154/43
f 156/156/44 160/160/44 157/157/44
